# xmcd
#
# Track frame offsets:
#	150
#	33744
#	61343
#	100710
#	142740
#	184643
#
# Disc length: 2918 seconds
#
# Revision: 1
# Processed by: cddbd v1.5.2PL0 Copyright (c) Steve Scherf et al.
# Submitted via: audiograbber 1.83.01
#
DISCID=470b6406
DTITLE=Grateful Dead - 82-02-17 Warfield Theatre, San Francisco CA
DYEAR=1900
DGENRE=
TTITLE0=Space
TTITLE1=The Wheel
TTITLE2=Not Fade Away
TTITLE3=Wharf Rat
TTITLE4=Sugar Magnolia
TTITLE5=Satisfaction
EXTD=
EXTT0=
EXTT1=
EXTT2=
EXTT3=
EXTT4=
EXTT5=
PLAYORDER=
